{
	"asset":{
		"generator":"Khronos glTF Blender I/O v3.6.27",
		"version":"2.0"
	},
	"extensionsUsed":[
		"KHR_materials_specular",
		"KHR_materials_ior"
	],
	"scene":0,
	"scenes":[
		{
			"name":"Scene",
			"nodes":[
				0,
				1
			]
		}
	],
	"nodes":[
		{
			"mesh":0,
			"name":"kursi_Cube.001",
			"rotation":[
				0.7071068286895752,
				0,
				0,
				0.7071068286895752
			]
		},
		{
			"mesh":1,
			"name":"Cube.001",
			"rotation":[
				0.7071068286895752,
				0,
				0,
				0.7071068286895752
			]
		}
	],
	"materials":[
		{
			"doubleSided":true,
			"name":"Material.001",
			"normalTexture":{
				"index":0,
				"scale":0.800000011920929
			},
			"pbrMetallicRoughness":{
				"baseColorTexture":{
					"index":1
				},
				"metallicFactor":0,
				"roughnessFactor":0.690034806728363
			}
		},
		{
			"doubleSided":true,
			"extensions":{
				"KHR_materials_specular":{
					"specularColorFactor":[
						1,
						1,
						1
					]
				},
				"KHR_materials_ior":{
					"ior":1
				}
			},
			"name":"Material.002",
			"pbrMetallicRoughness":{
				"baseColorTexture":{
					"index":2
				},
				"metallicFactor":0,
				"roughnessFactor":0.690034806728363
			}
		}
	],
	"meshes":[
		{
			"name":"kursi_Cube.001",
			"primitives":[
				{
					"attributes":{
						"POSITION":0,
						"NORMAL":1
					},
					"indices":2,
					"material":0
				}
			]
		},
		{
			"name":"Cube.001",
			"primitives":[
				{
					"attributes":{
						"POSITION":3,
						"NORMAL":4
					},
					"indices":5,
					"material":1
				}
			]
		}
	],
	"textures":[
		{
			"sampler":0,
			"source":0
		},
		{
			"sampler":0,
			"source":0
		},
		{
			"sampler":0,
			"source":1
		}
	],
	"images":[
		{
			"bufferView":3,
			"mimeType":"image/jpeg",
			"name":"Wood"
		},
		{
			"bufferView":7,
			"mimeType":"image/jpeg",
			"name":"Wood Floor"
		}
	],
	"accessors":[
		{
			"bufferView":0,
			"componentType":5126,
			"count":1528,
			"max":[
				2.101555109024048,
				2.37027907371521,
				1.5160900354385376
			],
			"min":[
				-2.05131196975708,
				1.5705310106277466,
				-1.602728009223938
			],
			"type":"VEC3"
		},
		{
			"bufferView":1,
			"componentType":5126,
			"count":1528,
			"type":"VEC3"
		},
		{
			"bufferView":2,
			"componentType":5123,
			"count":3216,
			"type":"SCALAR"
		},
		{
			"bufferView":4,
			"componentType":5126,
			"count":416,
			"max":[
				2.2972590923309326,
				0.7003239989280701,
				1.5201560258865356
			],
			"min":[
				-2.295074939727783,
				-1.3476569652557373,
				-1.4084279537200928
			],
			"type":"VEC3"
		},
		{
			"bufferView":5,
			"componentType":5126,
			"count":416,
			"type":"VEC3"
		},
		{
			"bufferView":6,
			"componentType":5123,
			"count":996,
			"type":"SCALAR"
		}
	],
	"bufferViews":[
		{
			"buffer":0,
			"byteLength":18336,
			"byteOffset":0,
			"target":34962
		},
		{
			"buffer":0,
			"byteLength":18336,
			"byteOffset":18336,
			"target":34962
		},
		{
			"buffer":0,
			"byteLength":6432,
			"byteOffset":36672,
			"target":34963
		},
		{
			"buffer":0,
			"byteLength":43960,
			"byteOffset":43104
		},
		{
			"buffer":0,
			"byteLength":4992,
			"byteOffset":87064,
			"target":34962
		},
		{
			"buffer":0,
			"byteLength":4992,
			"byteOffset":92056,
			"target":34962
		},
		{
			"buffer":0,
			"byteLength":1992,
			"byteOffset":97048,
			"target":34963
		},
		{
			"buffer":0,
			"byteLength":196501,
			"byteOffset":99040
		}
	],
	"samplers":[
		{
			"magFilter":9729,
			"minFilter":9987
		}
	],
	"buffers":[
		{
			"byteLength":295544,
			"uri":"data:application/octet-stream;base64,"
		}
	]
}
